<svg width="28" height="16" viewBox="0 0 28 16" fill="none" xmlns="http://www.w3.org/2000/svg">
<rect width="28" height="16" fill="white"/>
<rect width="14" height="16" fill="#32BE65"/>
<path d="M12.4964 6.32599H10.1058C10.0376 5.93395 9.91193 5.58665 9.72869 5.28409C9.54545 4.97727 9.31747 4.71733 9.04474 4.50426C8.77202 4.29119 8.46094 4.13139 8.11151 4.02486C7.76634 3.91406 7.39347 3.85866 6.9929 3.85866C6.28125 3.85866 5.65057 4.03764 5.10085 4.3956C4.55114 4.74929 4.12074 5.26918 3.80966 5.95526C3.49858 6.63707 3.34304 7.47017 3.34304 8.45455C3.34304 9.45597 3.49858 10.2997 3.80966 10.9858C4.125 11.6676 4.5554 12.1832 5.10085 12.5327C5.65057 12.8778 6.27912 13.0504 6.98651 13.0504C7.37855 13.0504 7.74503 12.9993 8.08594 12.897C8.43111 12.7905 8.74006 12.6349 9.01278 12.4304C9.28977 12.2259 9.52202 11.9744 9.70952 11.6761C9.90128 11.3778 10.0334 11.0369 10.1058 10.6534L12.4964 10.6662C12.407 11.2884 12.2131 11.8722 11.9148 12.4176C11.6207 12.9631 11.2351 13.4446 10.7578 13.8622C10.2805 14.2756 9.7223 14.5994 9.0831 14.8338C8.44389 15.0639 7.73438 15.179 6.95455 15.179C5.80398 15.179 4.77699 14.9126 3.87358 14.38C2.97017 13.8473 2.25852 13.0781 1.73864 12.0724C1.21875 11.0668 0.958807 9.8608 0.958807 8.45455C0.958807 7.04403 1.22088 5.83807 1.74503 4.83665C2.26918 3.83097 2.98295 3.06179 3.88636 2.52912C4.78977 1.99645 5.8125 1.73011 6.95455 1.73011C7.68324 1.73011 8.3608 1.83239 8.98722 2.03693C9.61364 2.24148 10.1719 2.5419 10.6619 2.93821C11.152 3.33026 11.5547 3.81179 11.87 4.38281C12.1896 4.94957 12.3984 5.5973 12.4964 6.32599Z" fill="white"/>
<rect width="14" height="16" transform="translate(14)" fill="#EB4B6D"/>
<path d="M23.4055 5.50781C23.3459 4.94957 23.0945 4.51491 22.6513 4.20384C22.2124 3.89276 21.6413 3.73722 20.9382 3.73722C20.4439 3.73722 20.0199 3.81179 19.6662 3.96094C19.3125 4.11008 19.0419 4.3125 18.8544 4.56818C18.6669 4.82386 18.571 5.11577 18.5668 5.44389C18.5668 5.71662 18.6286 5.95312 18.7521 6.15341C18.88 6.35369 19.0526 6.52415 19.2699 6.66477C19.4872 6.80114 19.728 6.91619 19.9922 7.00994C20.2564 7.10369 20.5227 7.18253 20.7912 7.24645L22.0185 7.55327C22.5128 7.66832 22.9879 7.82386 23.4439 8.01989C23.9041 8.21591 24.3153 8.46307 24.6776 8.76136C25.044 9.05966 25.3338 9.41974 25.5469 9.84162C25.7599 10.2635 25.8665 10.7578 25.8665 11.3246C25.8665 12.0916 25.6705 12.767 25.2784 13.3509C24.8864 13.9304 24.3196 14.3842 23.5781 14.7124C22.8409 15.0362 21.9482 15.1982 20.8999 15.1982C19.8814 15.1982 18.9972 15.0405 18.2472 14.7251C17.5014 14.4098 16.9176 13.9496 16.4957 13.3445C16.0781 12.7393 15.8523 12.0021 15.8182 11.1328H18.1513C18.1854 11.5888 18.326 11.968 18.5732 12.2706C18.8203 12.5732 19.142 12.799 19.5384 12.9482C19.9389 13.0973 20.3864 13.1719 20.8807 13.1719C21.3963 13.1719 21.848 13.0952 22.2358 12.9418C22.6278 12.7841 22.9347 12.5668 23.1562 12.2898C23.3778 12.0085 23.4908 11.6804 23.495 11.3054C23.4908 10.9645 23.3906 10.6832 23.1946 10.4616C22.9986 10.2358 22.7237 10.0483 22.37 9.89915C22.0206 9.74574 21.6115 9.60937 21.1428 9.49006L19.6534 9.10653C18.5753 8.82955 17.723 8.4098 17.0966 7.8473C16.4744 7.28054 16.1634 6.52841 16.1634 5.59091C16.1634 4.8196 16.3722 4.14418 16.7898 3.56463C17.2116 2.98509 17.7848 2.53551 18.5092 2.21591C19.2337 1.89204 20.054 1.73011 20.9702 1.73011C21.8991 1.73011 22.7131 1.89204 23.4119 2.21591C24.1151 2.53551 24.6669 2.98082 25.0675 3.55185C25.468 4.11861 25.6747 4.7706 25.6875 5.50781H23.4055Z" fill="white"/>
</svg>
