<svg width="98" height="26" viewBox="0 0 98 26" fill="none" xmlns="http://www.w3.org/2000/svg">
<rect width="98" height="26" fill="black"/>
<rect y="1" width="45" height="24" rx="12" fill="white"/>
<path d="M16.4964 11.326H14.1058C14.0376 10.9339 13.9119 10.5866 13.7287 10.2841C13.5455 9.97727 13.3175 9.71733 13.0447 9.50426C12.772 9.29119 12.4609 9.13139 12.1115 9.02486C11.7663 8.91406 11.3935 8.85866 10.9929 8.85866C10.2813 8.85866 9.65057 9.03764 9.10085 9.3956C8.55114 9.74929 8.12074 10.2692 7.80966 10.9553C7.49858 11.6371 7.34304 12.4702 7.34304 13.4545C7.34304 14.456 7.49858 15.2997 7.80966 15.9858C8.125 16.6676 8.5554 17.1832 9.10085 17.5327C9.65057 17.8778 10.2791 18.0504 10.9865 18.0504C11.3786 18.0504 11.745 17.9993 12.0859 17.897C12.4311 17.7905 12.7401 17.6349 13.0128 17.4304C13.2898 17.2259 13.522 16.9744 13.7095 16.6761C13.9013 16.3778 14.0334 16.0369 14.1058 15.6534L16.4964 15.6662C16.407 16.2884 16.2131 16.8722 15.9148 17.4176C15.6207 17.9631 15.2351 18.4446 14.7578 18.8622C14.2805 19.2756 13.7223 19.5994 13.0831 19.8338C12.4439 20.0639 11.7344 20.179 10.9545 20.179C9.80398 20.179 8.77699 19.9126 7.87358 19.38C6.97017 18.8473 6.25852 18.0781 5.73864 17.0724C5.21875 16.0668 4.95881 14.8608 4.95881 13.4545C4.95881 12.044 5.22088 10.8381 5.74503 9.83665C6.26918 8.83097 6.98295 8.06179 7.88636 7.52912C8.78977 6.99645 9.8125 6.73011 10.9545 6.73011C11.6832 6.73011 12.3608 6.83239 12.9872 7.03693C13.6136 7.24148 14.1719 7.5419 14.6619 7.93821C15.152 8.33026 15.5547 8.81179 15.87 9.38281C16.1896 9.94957 16.3984 10.5973 16.4964 11.326ZM20.1911 20H17.6598L22.2685 6.90909H25.196L29.8111 20H27.2798L23.7834 9.59375H23.6811L20.1911 20ZM20.2741 14.8672H27.1776V16.772H20.2741V14.8672ZM29.378 8.89702V6.90909H39.8226V8.89702H35.7765V20H33.4242V8.89702H29.378Z" fill="black"/>
<rect x="45" width="53" height="26" rx="5" fill="black"/>
<path d="M55.4055 10.5078C55.3459 9.94957 55.0945 9.51491 54.6513 9.20384C54.2124 8.89276 53.6413 8.73722 52.9382 8.73722C52.4439 8.73722 52.0199 8.81179 51.6662 8.96094C51.3125 9.11008 51.0419 9.3125 50.8544 9.56818C50.6669 9.82386 50.571 10.1158 50.5668 10.4439C50.5668 10.7166 50.6286 10.9531 50.7521 11.1534C50.88 11.3537 51.0526 11.5241 51.2699 11.6648C51.4872 11.8011 51.728 11.9162 51.9922 12.0099C52.2564 12.1037 52.5227 12.1825 52.7912 12.2464L54.0185 12.5533C54.5128 12.6683 54.9879 12.8239 55.4439 13.0199C55.9041 13.2159 56.3153 13.4631 56.6776 13.7614C57.044 14.0597 57.3338 14.4197 57.5469 14.8416C57.7599 15.2635 57.8665 15.7578 57.8665 16.3246C57.8665 17.0916 57.6705 17.767 57.2784 18.3509C56.8864 18.9304 56.3196 19.3842 55.5781 19.7124C54.8409 20.0362 53.9482 20.1982 52.8999 20.1982C51.8814 20.1982 50.9972 20.0405 50.2472 19.7251C49.5014 19.4098 48.9176 18.9496 48.4957 18.3445C48.0781 17.7393 47.8523 17.0021 47.8182 16.1328H50.1513C50.1854 16.5888 50.326 16.968 50.5732 17.2706C50.8203 17.5732 51.142 17.799 51.5384 17.9482C51.9389 18.0973 52.3864 18.1719 52.8807 18.1719C53.3963 18.1719 53.848 18.0952 54.2358 17.9418C54.6278 17.7841 54.9347 17.5668 55.1562 17.2898C55.3778 17.0085 55.4908 16.6804 55.495 16.3054C55.4908 15.9645 55.3906 15.6832 55.1946 15.4616C54.9986 15.2358 54.7237 15.0483 54.37 14.8991C54.0206 14.7457 53.6115 14.6094 53.1428 14.4901L51.6534 14.1065C50.5753 13.8295 49.723 13.4098 49.0966 12.8473C48.4744 12.2805 48.1634 11.5284 48.1634 10.5909C48.1634 9.8196 48.3722 9.14418 48.7898 8.56463C49.2116 7.98509 49.7848 7.53551 50.5092 7.21591C51.2337 6.89204 52.054 6.73011 52.9702 6.73011C53.8991 6.73011 54.7131 6.89204 55.4119 7.21591C56.1151 7.53551 56.6669 7.98082 57.0675 8.55185C57.468 9.11861 57.6747 9.7706 57.6875 10.5078H55.4055ZM61.9047 20L59.1305 10.1818H61.4892L63.215 17.0852H63.3045L65.0687 10.1818H67.4018L69.166 17.0469H69.2619L70.9622 10.1818H73.3272L70.5467 20H68.1369L66.296 13.3651H66.1618L64.3208 20H61.9047ZM77.7681 20.1982C77.146 20.1982 76.5856 20.0874 76.087 19.8658C75.5927 19.6399 75.2006 19.3075 74.9109 18.8686C74.6254 18.4297 74.4826 17.8885 74.4826 17.245C74.4826 16.6911 74.5849 16.233 74.7894 15.8707C74.994 15.5085 75.2731 15.2188 75.6268 15.0014C75.9805 14.7841 76.3789 14.62 76.8221 14.5092C77.2695 14.3942 77.7319 14.3111 78.2092 14.2599C78.7844 14.2003 79.2511 14.147 79.609 14.1001C79.967 14.049 80.2269 13.9723 80.3888 13.87C80.555 13.7635 80.6381 13.5994 80.6381 13.3778V13.3395C80.6381 12.858 80.4954 12.4851 80.2099 12.2209C79.9244 11.9567 79.5131 11.8246 78.9762 11.8246C78.4094 11.8246 77.9599 11.9482 77.6275 12.1953C77.2994 12.4425 77.0778 12.7344 76.9627 13.071L74.8022 12.7642C74.9727 12.1676 75.2539 11.669 75.646 11.2685C76.038 10.8636 76.5174 10.5611 77.0842 10.3608C77.6509 10.1562 78.2773 10.054 78.9634 10.054C79.4364 10.054 79.9073 10.1094 80.3761 10.2202C80.8448 10.331 81.2731 10.5142 81.6609 10.7699C82.0487 11.0213 82.3597 11.3643 82.5941 11.799C82.8327 12.2337 82.9521 12.777 82.9521 13.429V20H80.7276V18.6513H80.6509C80.5103 18.924 80.3121 19.1797 80.0565 19.4183C79.805 19.6527 79.4876 19.8423 79.104 19.9872C78.7248 20.1278 78.2795 20.1982 77.7681 20.1982ZM78.369 18.4979C78.8335 18.4979 79.2362 18.4062 79.5771 18.223C79.918 18.0355 80.18 17.7884 80.3633 17.4815C80.5508 17.1747 80.6445 16.8402 80.6445 16.478V15.321C80.5721 15.3807 80.4485 15.4361 80.2738 15.4872C80.1033 15.5384 79.9116 15.5831 79.6985 15.6214C79.4854 15.6598 79.2745 15.6939 79.0657 15.7237C78.8569 15.7536 78.6758 15.7791 78.5224 15.8004C78.1772 15.8473 77.8683 15.924 77.5955 16.0305C77.3228 16.1371 77.1076 16.2862 76.9499 16.478C76.7923 16.6655 76.7134 16.9084 76.7134 17.2067C76.7134 17.6328 76.869 17.9545 77.18 18.1719C77.4911 18.3892 77.8874 18.4979 78.369 18.4979ZM85.2788 23.6818V10.1818H87.5543V11.8054H87.6886C87.8079 11.5668 87.9762 11.3132 88.1935 11.0447C88.4109 10.772 88.7049 10.5398 89.0756 10.348C89.4464 10.152 89.9194 10.054 90.4947 10.054C91.2532 10.054 91.9371 10.2479 92.5465 10.6357C93.1602 11.0192 93.646 11.5881 94.0039 12.3423C94.3661 13.0923 94.5472 14.0128 94.5472 15.1037C94.5472 16.1818 94.3704 17.098 94.0167 17.8523C93.663 18.6065 93.1815 19.1818 92.5721 19.5781C91.9627 19.9744 91.2724 20.1726 90.5011 20.1726C89.9386 20.1726 89.4719 20.0788 89.1012 19.8913C88.7305 19.7038 88.4322 19.478 88.2063 19.2138C87.9847 18.9453 87.8121 18.6918 87.6886 18.4531H87.5927V23.6818H85.2788ZM87.5479 15.0909C87.5479 15.7259 87.6374 16.282 87.8164 16.7592C87.9996 17.2365 88.2617 17.6094 88.6026 17.8778C88.9478 18.142 89.3654 18.2741 89.8555 18.2741C90.3668 18.2741 90.7951 18.1378 91.1403 17.8651C91.4854 17.5881 91.7454 17.2109 91.9201 16.7337C92.0991 16.2521 92.1886 15.7045 92.1886 15.0909C92.1886 14.4815 92.1012 13.9403 91.9265 13.4673C91.7518 12.9943 91.4918 12.6236 91.1467 12.3551C90.8015 12.0866 90.3711 11.9524 89.8555 11.9524C89.3612 11.9524 88.9414 12.0824 88.5962 12.3423C88.2511 12.6023 87.989 12.9666 87.81 13.4354C87.6353 13.9041 87.5479 14.456 87.5479 15.0909Z" fill="white"/>
</svg>
